<svg width="175" height="40" fill="none" xmlns="http://www.w3.org/2000/svg"><g clip-path="url(#clip0_80_2186)" fill="#fff"><path d="M16.618 17.953a4.741 4.741 0 00-1.736-1.328 5.657 5.657 0 00-2.37-.474 3.921 3.921 0 00-2.604.948 3.746 3.746 0 00-.915 3.908c.135.338.333.649.583.915.28.298.598.557.948.768.39.237.859.474 1.423.763 1.347.72 2.564 1.661 3.599 2.784.97 1.072 1.456 2.528 1.456 4.368a9.2 9.2 0 01-.816 4.03 8.16 8.16 0 01-2.148 2.784 8.469 8.469 0 01-2.983 1.607c-1.1.34-2.244.513-3.395.512a11.062 11.062 0 01-4.495-.92A8.355 8.355 0 01-.103 36.22l3.396-3.566a7.534 7.534 0 001.897 1.683c.83.498 1.787.747 2.755.717a3.87 3.87 0 002.655-.996 3.528 3.528 0 001.124-2.784 3.387 3.387 0 00-1.02-2.527 10.12 10.12 0 00-2.555-1.764 9.413 9.413 0 01-3.24-2.476 6.203 6.203 0 01-1.303-4.111 8.27 8.27 0 01.792-3.727 7.919 7.919 0 012.12-2.656 9.333 9.333 0 012.987-1.607 11.174 11.174 0 013.447-.536 10.178 10.178 0 013.88.692 8.114 8.114 0 012.707 1.707l-2.921 3.685zM23.711 38.684H18.15l6.738-38.6h5.515l-6.69 38.6zM33.466 38.684H27.95l4.542-25.948h5.515l-4.542 25.948zM39.63 4.68a3.926 3.926 0 01-1.024 2.755 3.319 3.319 0 01-2.551 1.124 2.727 2.727 0 01-2.196-.892 3.077 3.077 0 01-.749-2.044 4.083 4.083 0 011.02-2.731 3.263 3.263 0 012.603-1.2 2.75 2.75 0 012.143.84 3.1 3.1 0 01.768 2.143l-.014.005zM53.022 18.108a3.375 3.375 0 00-1.153-.896 4.234 4.234 0 00-1.811-.332 3.64 3.64 0 00-2.656 1.2 10.636 10.636 0 00-2.015 3.04 18.262 18.262 0 00-1.276 4.006 20.84 20.84 0 00-.436 4.06 7.664 7.664 0 00.82 3.855c.541.948 1.532 1.422 2.96 1.422a3.936 3.936 0 001.683-.332 8.344 8.344 0 001.532-.948l1.688 4.391a8.683 8.683 0 01-2.656 1.456 9.56 9.56 0 01-3.167.536 8.478 8.478 0 01-3.751-.764 7.246 7.246 0 01-2.58-2.096 8.776 8.776 0 01-1.503-3.139c-.33-1.276-.49-2.59-.474-3.907.005-2.144.28-4.28.82-6.355a20.75 20.75 0 012.347-5.718 13.476 13.476 0 013.794-4.112 9.636 9.636 0 018.754-.948c.772.34 1.474.823 2.067 1.423l-2.987 4.158zM67.437 24.998l6.331 13.686h-5.97l-5.468-12.51h-.1l-2.095 12.51h-5.41l6.69-38.6h5.41l-4.134 23.587h.1l8.691-10.935h6.43L67.438 24.998z"/><path d="M93.172 38.685h-5.311l.664-3.832h-.104a10.153 10.153 0 01-2.476 3.32 5.97 5.97 0 01-4.111 1.38c-2.175 0-3.79-.86-4.846-2.58-1.056-1.72-1.584-3.95-1.584-6.691.009-2.149.257-4.29.74-6.383a23.058 23.058 0 012.171-5.946 14.336 14.336 0 013.495-4.368 7.113 7.113 0 014.671-1.712c1.533 0 2.708.392 3.523 1.176a5.06 5.06 0 011.48 3.116h.156L94.448.08h5.486l-6.762 38.605zm-2.656-16.597a8.753 8.753 0 00-.768-3.931 2.59 2.59 0 00-2.499-1.532 3.55 3.55 0 00-2.707 1.3 10.909 10.909 0 00-1.964 3.266 21.294 21.294 0 00-1.2 4.216 23.012 23.012 0 00-.412 4.135 8.06 8.06 0 00.745 3.727 2.565 2.565 0 002.475 1.423 3.534 3.534 0 002.655-1.276 11.156 11.156 0 001.992-3.167c.56-1.32.979-2.698 1.247-4.107.274-1.333.42-2.689.436-4.05v-.004zM117.527 20.608c0 .683-.033 1.499-.104 2.452-.071.953-.256 2.3-.56 4.035h-13.325a14.662 14.662 0 00-.208 2.4 6.821 6.821 0 00.872 3.632 2.954 2.954 0 002.703 1.423 3.753 3.753 0 002.656-.996 9.866 9.866 0 001.839-2.324l3.879 2.504a13.663 13.663 0 01-3.622 4.159 8.657 8.657 0 01-5.364 1.66c-2.655 0-4.71-.86-6.164-2.58-1.455-1.72-2.186-4.162-2.196-7.327a25.078 25.078 0 01.868-6.61 20.273 20.273 0 012.452-5.69 13.528 13.528 0 013.793-3.984 8.494 8.494 0 014.875-1.508 8.677 8.677 0 013.5.64 6.067 6.067 0 012.371 1.812 7.473 7.473 0 011.327 2.784c.282 1.15.419 2.333.408 3.518zm-5.003 0a5.834 5.834 0 00-.692-3.063 2.414 2.414 0 00-2.219-1.124 3.32 3.32 0 00-2.016.664 6.838 6.838 0 00-1.583 1.688c-.462.684-.84 1.42-1.124 2.195a11.537 11.537 0 00-.588 2.144h7.961c.096-.438.164-.881.204-1.328.038-.408.057-.801.057-1.176zM136.803 19.13a14.8 14.8 0 01-.128 1.939c-.085.65-.194 1.36-.332 2.148l-1.735 10.21a77.013 77.013 0 00-.475 2.987c-.11.753-.178 1.511-.203 2.271h-4.648c0-.204 0-.474.053-.815.052-.342.075-.697.128-1.072.052-.375.104-.74.151-1.1.048-.36.114-.673.181-.949h-.1a7.939 7.939 0 01-2.504 3.32 6.513 6.513 0 01-3.983 1.171 6.096 6.096 0 01-2.068-.355 4.83 4.83 0 01-1.759-1.096 5.334 5.334 0 01-1.228-1.897 7.53 7.53 0 01-.474-2.783 10.67 10.67 0 011.071-5.027 9.11 9.11 0 012.812-3.243 11.42 11.42 0 013.903-1.76 18.218 18.218 0 014.42-.535h1.531c.133-.75.218-1.304.252-1.66.033-.298.05-.597.052-.896 0-2.314-1.039-3.471-3.116-3.471a5.691 5.691 0 00-2.755.716 9.776 9.776 0 00-2.347 1.735l-2.229-3.461a12.061 12.061 0 013.827-2.632 10.805 10.805 0 014.391-.996c2.554 0 4.41.632 5.567 1.897 1.157 1.264 1.739 3.049 1.745 5.353zm-7.554 7.25c-.809 0-1.616.103-2.399.308a6.198 6.198 0 00-2.096.949 4.92 4.92 0 00-1.48 1.764 5.834 5.834 0 00-.564 2.679c0 1.02.242 1.764.716 2.219a2.417 2.417 0 001.736.726 3.516 3.516 0 002.096-.664 6.483 6.483 0 001.602-1.707 10.89 10.89 0 001.148-2.296c.299-.804.521-1.634.664-2.48l.256-1.48-1.679-.018zM143.034 38.684h-5.567l6.739-38.6h5.519l-6.691 38.6zM161.922 17.953a4.675 4.675 0 00-1.736-1.328 5.619 5.619 0 00-2.347-.474 3.92 3.92 0 00-2.603.949 3.772 3.772 0 00-.92 3.907c.137.339.336.65.588.915.29.303.622.563.986.773.389.237.858.474 1.423.764a13.79 13.79 0 013.599 2.783c.967 1.072 1.452 2.528 1.456 4.367a9.133 9.133 0 01-.821 4.031 8.144 8.144 0 01-2.143 2.784 8.53 8.53 0 01-2.988 1.607c-1.099.34-2.244.514-3.395.512a11.062 11.062 0 01-4.491-.92 8.322 8.322 0 01-3.267-2.399l3.367-3.57a7.634 7.634 0 001.897 1.683c.83.498 1.787.747 2.755.716.96.009 1.89-.34 2.608-.977a3.53 3.53 0 001.124-2.783 3.392 3.392 0 00-1.02-2.527A10.207 10.207 0 00153.438 27a9.396 9.396 0 01-3.243-2.475 6.199 6.199 0 01-1.299-4.112 8.216 8.216 0 01.791-3.727 7.935 7.935 0 012.12-2.656 9.318 9.318 0 012.983-1.607 11.213 11.213 0 013.471-.545c1.327-.025 2.647.21 3.884.692a8.102 8.102 0 012.703 1.707l-2.926 3.675zM166.455 4.344a4.1 4.1 0 01.336-1.66c.218-.497.528-.948.916-1.327a4.564 4.564 0 011.361-.949 4.264 4.264 0 013.319 0c.507.23.967.551 1.356.949.391.385.703.842.92 1.346a4.17 4.17 0 01.337 1.66 4.09 4.09 0 01-.337 1.65 4.228 4.228 0 01-2.281 2.238 4.362 4.362 0 01-3.319 0 4.198 4.198 0 01-2.276-2.238 4.008 4.008 0 01-.332-1.669zm.673 0c-.001.477.094.95.28 1.39.184.427.444.818.768 1.152a3.622 3.622 0 003.955.777 3.555 3.555 0 001.143-.777c.327-.332.587-.723.768-1.153a3.565 3.565 0 000-2.793 3.607 3.607 0 00-4.742-1.896 3.565 3.565 0 00-1.911 1.91 3.556 3.556 0 00-.261 1.39zm1.93-2.418h1.688c.22 0 .44.026.655.076.204.047.398.13.573.246.179.118.323.28.419.47.097.19.142.403.131.616.014.312-.093.618-.298.854a1.51 1.51 0 01-.806.44l1.294 2.097h-1.053l-1.123-2.006h-.617v2.006h-.863v-4.8zm1.555 2.1c.245.002.487-.047.712-.142a.548.548 0 00.336-.569.513.513 0 00-.308-.526 1.661 1.661 0 00-.645-.128h-.787v1.365h.692z"/></g><defs><clipPath id="clip0_80_2186"><path fill="#fff" d="M0 0h175v40H0z"/></clipPath></defs></svg>